<?xml version="1.0" encoding="UTF-8"?>
<svg id="svg1" width="57.12mm" height="57.12mm" version="1.1" viewBox="0 0 57.12 57.12" xml:space="preserve" xmlns="http://www.w3.org/2000/svg"><g id="layer1" transform="translate(-52.79 -96.142)"><g id="g2" transform="matrix(1.5867 0 0 1.5867 52.79 96.142)"><path id="path1" d="m16 0h4v5h-4z" fill="#292f33"/><path id="path2" d="m16 2h4v4h-4z" fill="#d1d3d4"/><path id="path3" d="m18 2h2v4h-2z" fill="#a7a9ac"/><path id="path4" d="m18 19h-13s1.355 8 4.875 14c3.519 6 8.125 0 8.125 0s4.606 6 8.125 0c3.52-6 4.875-14 4.875-14z" fill="#394147"/><path id="path5" d="m18 19h-13s1.355 8 4.875 14c3.519 6 8.125 0 8.125 0z" fill="#607785"/><path id="path6" d="m0 30h36v6h-36z" fill="#55acee"/><path id="path7" d="m30 9h-2.45l-0.242-4h-18.616l-0.241 4h-2.451v6h2.088l-0.242 4h20.308l-0.242-4h2.088z" fill="#232a32"/><path id="path8" d="m10 15h16v4h-16z" fill="#161b1e"/><path id="path9" d="m8 11h20v2h-20z" fill="#6d6e71"/><path id="path10" d="m10 7h16v2h-16z" fill="#161b1e"/><path id="path11" d="m5.913 23h24.174c0.201-0.747 0.368-1.427 0.5-2h-25.174c0.132 0.573 0.299 1.253 0.5 2z" fill="#900"/><path id="path12" d="m18 23h12.087c0.201-0.747 0.368-1.427 0.5-2h-12.587z" fill="#300"/><path id="path13" d="m12 17h12v2h-12z" fill="#232a32"/><path id="path14" d="m16 0h2v2h-2z" fill="#58595b"/></g><g id="g1" transform="matrix(.97412 0 0 .97412 -18.435 4.5342)"><g id="g19066" transform="translate(2.9545 -8.4566)"><path id="path19064" d="m94.61 111.47c-1.6981 0.13151-3.579 1.009-5.1027 3.2656-0.89293 1.3224-1.9065 3.4507-2.4211 6.1777-0.47124 2.4975-0.59077 6.4855-0.08949 8.8658 0.63517 3.0161 2.4013 4.7681 3.9231 5.8888 1.4659 1.0795 5.6461 1.5023 7.1186 0.49049 1.9995-1.374 2.7824-3.4356 3.6949-6.0374 0.48001-1.3687 1.151-6.2144 1.0837-8.527-0.0826-2.8406-0.45206-5.5283-2.2188-7.5456-1.2508-1.4282-2.9226-2.8158-5.9882-2.5784z" fill="#fff" stroke="#000" stroke-width=".7"/><circle id="path19062" cx="94.31" cy="124.04" r="2.4481" stroke-width=".26458"/><circle id="path19061" cx="94.357" cy="123.21" r="1.3548" fill="#fff" stroke-width=".2742"/></g><g id="g19065" transform="translate(2.9545 -8.4566)"><path id="path19063" d="m103.64 112.75c-1.6981 0.13151-3.579 1.009-5.1027 3.2656-0.89293 1.3224-1.9065 3.4507-2.4211 6.1777-0.47124 2.4975-0.59077 6.4855-0.08949 8.8658 0.63517 3.0161 2.4013 4.7681 3.9231 5.8888 1.4659 1.0795 5.6461 1.5023 7.1186 0.49049 1.9995-1.374 2.7824-3.4356 3.6949-6.0374 0.48001-1.3687 1.151-6.2144 1.0837-8.527-0.0826-2.8406-0.45206-5.5283-2.2188-7.5456-1.2508-1.4282-2.9226-2.8158-5.9882-2.5784z" fill="#fff" stroke="#000" stroke-width=".7"/><circle id="circle19062" cx="104.24" cy="125.42" r="2.4481" stroke-width=".26458"/><circle id="circle19063" cx="104.29" cy="124.59" r="1.3548" fill="#fff" stroke-width=".2742"/></g><g id="g19067" transform="translate(2.9545 -8.4566)" stroke="#000"><path id="path19066" d="m100.71 138.85c-13.992-0.22573-5.2408 4.0832-3.3425 5.0296 5.0281 2.507 8.461 1.2141 9.4984-0.55411 1.9788-3.3728-0.12574-4.3782-6.1559-4.4755z" fill="#460000" stroke-width=".6"/><path id="path19067" d="m97.562 143.73c3.1999 1.801 7.4231 2.3722 9.509-0.98502-3.5606-1.9357-7.4385-1.2614-9.509 0.98502z" fill="#f494e1" stroke-width=".3"/></g></g></g></svg>
